<?xml version="1.0" standalone="no"?>
<!DOCTYPE svg PUBLIC "-//W3C//DTD SVG 20010904//EN"
 "http://www.w3.org/TR/2001/REC-SVG-20010904/DTD/svg10.dtd">
<svg version="1.0" xmlns="http://www.w3.org/2000/svg"
 width="300.000000pt" height="303.000000pt" viewBox="0 0 300.000000 303.000000"
 preserveAspectRatio="xMidYMid meet">
<metadata>
Created by potrace 1.10, written by Peter Selinger 2001-2011
</metadata>
<g transform="translate(0.000000,303.000000) scale(0.100000,-0.100000)"
fill="#000000" stroke="none">
<path d="M603 2790 c-126 -14 -220 -83 -261 -193 -20 -53 -21 -76 -23 -569 -1
-509 -1 -515 20 -564 30 -67 65 -102 138 -135 l63 -29 300 0 c282 0 301 -1
296 -17 -3 -10 -15 -71 -27 -135 l-22 -118 -53 0 c-29 0 -65 -5 -81 -11 -104
-39 -133 -175 -52 -243 l31 -26 548 0 549 0 35 30 c45 40 61 86 47 138 -19 69
-89 112 -184 112 l-54 0 -6 42 c-3 24 -13 88 -22 142 -8 54 -14 99 -13 100 2
1 66 -1 143 -5 77 -4 213 -7 303 -8 146 -1 167 1 203 20 53 26 135 113 151
159 10 26 13 161 13 545 0 467 -2 514 -18 562 -24 68 -94 145 -160 177 l-52
25 -870 5 c-478 2 -902 0 -942 -4z m1847 -55 c69 -40 113 -90 139 -158 17 -45
-3 -30 -22 17 -10 24 -29 54 -42 66 -23 22 -25 22 -50 6 -14 -9 -25 -26 -26
-39 -1 -19 -2 -18 -14 8 -7 17 -29 45 -49 64 l-35 34 -872 -1 c-954 -2 -882 3
-947 -63 l-32 -33 -16 23 c-10 14 -22 20 -32 16 -12 -4 -11 -1 4 16 20 23 63
47 104 60 14 4 437 7 940 6 895 -2 916 -2 950 -22z m-76 -66 c22 -26 26 -40
26 -95 l0 -64 -925 0 -925 0 0 69 c0 67 1 71 33 95 l32 26 867 0 866 0 26 -31z
m-1899 -26 c-3 -10 -6 -245 -5 -522 1 -533 1 -531 48 -574 11 -10 35 -18 53
-18 19 1 443 1 943 2 l908 1 37 33 36 33 -3 479 c-2 263 -5 502 -9 532 -7 69
8 62 48 -23 l29 -61 0 -493 c0 -434 -2 -497 -16 -525 -22 -43 -63 -87 -94 -99
-37 -15 -1886 -13 -1925 2 -46 17 -93 69 -110 120 -14 41 -15 115 -13 541 l3
494 28 48 c27 45 57 66 42 30z m1974 -228 c-4 -16 -7 -23 -8 -16 -1 8 -13 27
-27 42 l-25 27 25 25 c14 15 27 32 27 39 1 7 5 -9 9 -37 3 -27 3 -63 -1 -80z
m-1903 70 l26 -24 -28 -25 -29 -24 -8 36 c-7 34 -4 62 7 62 3 0 17 -11 32 -25z
m622 -20 c3 -3 -24 -5 -59 -5 -35 0 -59 4 -52 8 13 8 103 6 111 -3z m500 0 c2
-2 -65 -4 -149 -4 -85 0 -146 4 -136 8 19 7 277 4 285 -4z m737 -429 c0 -212
-3 -388 -7 -391 -3 -3 -416 -8 -917 -10 l-911 -5 -10 26 c-6 15 -10 178 -10
395 l0 369 923 2 c507 2 924 2 927 1 3 -1 5 -175 5 -387z m200 136 c-9 -10
-10 2 -5 93 l5 90 3 -89 c1 -49 0 -91 -3 -94z m4 -459 c0 -49 -3 -80 -7 -71
-7 17 -4 158 4 158 2 0 4 -39 3 -87z m-149 -12 c0 -33 -4 -71 -10 -85 -11 -29
-55 -55 -85 -50 -18 3 -435 4 -1015 1 -102 0 -286 1 -410 3 -124 2 -260 0
-302 -4 -74 -8 -78 -7 -102 17 -18 18 -26 36 -25 59 0 27 2 29 8 13 5 -11 18
-29 30 -40 22 -19 41 -19 924 -16 961 3 930 1 956 49 5 10 11 40 12 65 4 68
19 58 19 -12z m-2078 -183 c28 -79 84 -129 168 -150 35 -8 1216 -12 1229 -4 4
3 29 1 57 -3 27 -5 40 -9 28 -10 -11 0 -31 -12 -44 -26 -21 -22 -22 -31 -17
-97 5 -74 -6 -68 -16 10 -7 47 -18 72 -40 91 -20 16 -489 16 -520 0 -11 -7
-29 -21 -38 -32 l-16 -21 -7 21 c-12 38 -48 43 -344 42 l-284 -1 -56 29 c-69
36 -110 91 -121 163 -10 61 -4 57 21 -12z m2201 -50 c-30 -52 -43 -43 -15 11
15 29 28 44 30 36 2 -9 -5 -30 -15 -47z m-67 -77 c-41 -45 -77 -52 -249 -51
-170 0 -255 5 -264 14 -3 3 91 5 209 6 175 0 222 3 254 16 21 9 43 23 47 31 5
8 11 12 15 9 3 -3 -3 -15 -12 -25z m-781 -93 c2 -2 13 -56 24 -120 11 -65 23
-128 26 -141 l6 -23 -311 0 c-241 1 -309 4 -305 13 2 7 14 68 25 135 12 68 23
128 25 133 2 9 501 12 510 3z m96 -220 c15 -58 33 -76 85 -84 24 -3 42 -9 40
-13 -5 -8 -166 -14 -166 -6 0 3 7 16 16 30 11 17 14 36 9 69 -9 58 1 60 16 4z
m-686 -48 c-3 -5 2 -16 11 -25 28 -27 4 -37 -72 -29 -66 7 -68 8 -33 17 21 5
47 19 59 32 21 22 48 26 35 5z m-145 -50 c-8 -5 -21 -10 -29 -10 -8 0 -27 -14
-43 -32 -15 -17 -28 -27 -28 -22 1 26 63 74 95 74 16 0 17 -2 5 -10z m1036
-17 c44 -28 52 -89 19 -139 -17 -26 -38 -33 -29 -9 4 8 10 15 14 15 4 0 13 13
18 29 12 34 -8 74 -54 109 -31 24 -6 20 32 -5z m-26 -43 c23 -23 26 -55 8 -67
-19 -12 -1050 -13 -1065 -1 -20 16 -15 55 9 72 18 13 91 15 525 15 487 0 504
0 523 -19z m-1039 -110 c10 0 19 -4 19 -10 0 -15 -43 -12 -68 6 -13 9 -22 26
-22 40 l0 26 26 -31 c14 -17 34 -31 45 -31z m514 -10 c4 -7 -51 -10 -157 -10
-109 0 -158 4 -148 10 20 13 297 13 305 0z m325 0 c7 -5 -33 -8 -89 -8 -56 0
-104 5 -107 10 -7 11 178 9 196 -2z m200 -3 c0 -4 -42 -7 -92 -6 -51 1 -83 5
-70 8 34 9 162 7 162 -2z"/>
<path d="M1860 2638 c-27 -30 -22 -66 13 -91 l27 -21 28 21 c36 27 42 75 10
97 -31 22 -53 20 -78 -6z"/>
<path d="M2042 2640 c-26 -24 -28 -47 -6 -78 32 -46 104 -15 104 45 0 23 -34
53 -60 53 -9 0 -26 -9 -38 -20z"/>
<path d="M2226 2639 c-34 -27 -32 -64 7 -92 l27 -21 28 21 c36 27 42 75 10 97
-30 21 -40 20 -72 -5z"/>
<path d="M625 2630 c-38 -42 14 -102 56 -64 25 23 24 49 -3 68 -29 20 -31 20
-53 -4z"/>
<path d="M767 2632 c-23 -25 -21 -59 3 -72 51 -27 95 36 50 72 -28 22 -33 22
-53 0z"/>
<path d="M894 2625 c-15 -23 -15 -27 0 -50 19 -30 46 -32 69 -7 23 25 21 48
-5 66 -31 22 -45 20 -64 -9z"/>
<path d="M936 2342 c-3 -3 -6 -19 -6 -36 0 -50 -13 -60 -40 -31 -13 14 -27 25
-32 25 -4 0 -33 -24 -63 -53 -56 -53 -56 -53 -35 -72 31 -28 25 -43 -17 -47
l-38 -3 -3 -97 -3 -98 34 0 c44 0 48 -6 29 -40 l-17 -29 50 -51 c27 -27 54
-50 59 -50 5 0 20 9 32 21 30 28 44 17 44 -32 l0 -40 83 3 82 3 3 43 c2 23 6
42 10 42 3 0 18 -11 32 -25 l26 -25 53 54 54 54 -22 27 c-27 35 -20 45 30 45
l40 0 -3 98 -3 97 -37 -1 c-44 -1 -52 21 -18 51 21 19 20 19 -27 67 -52 53
-71 58 -98 28 -27 -30 -35 -25 -35 25 0 25 -3 45 -7 46 -36 5 -153 6 -157 1z
m104 -97 c0 -25 5 -37 18 -41 9 -3 30 -12 45 -21 16 -8 30 -13 31 -11 2 1 9
13 15 25 10 19 15 21 30 11 18 -11 18 -12 -1 -39 -19 -25 -19 -29 -4 -50 9
-13 16 -32 16 -42 0 -16 6 -18 30 -15 29 4 30 3 30 -35 0 -38 -1 -39 -30 -35
-21 3 -30 0 -30 -10 0 -8 -8 -27 -17 -43 -16 -27 -16 -29 5 -52 20 -22 21 -25
7 -37 -13 -11 -19 -10 -38 8 -20 18 -24 19 -41 6 -11 -8 -30 -14 -43 -14 -20
0 -23 -5 -23 -35 0 -31 -3 -35 -25 -35 -21 0 -25 5 -25 30 0 20 -6 32 -17 36
-10 3 -33 12 -50 19 -30 13 -33 13 -43 -5 -13 -24 -24 -25 -44 -4 -15 14 -14
17 4 32 20 17 20 18 3 59 -15 36 -23 43 -45 43 -24 0 -28 4 -28 30 0 42 2 45
29 45 15 0 25 6 27 18 1 10 10 29 19 43 16 24 15 27 -1 45 -16 18 -16 21 -1
36 15 15 17 15 35 -7 18 -22 19 -22 50 -6 17 9 39 16 48 16 13 0 16 7 11 35
-5 33 -4 35 24 35 27 0 29 -3 29 -35z"/>
<path d="M955 2148 c-95 -52 -110 -151 -35 -223 39 -37 113 -41 157 -9 42 31
76 98 68 134 -18 81 -123 135 -190 98z m103 -85 c20 -27 14 -60 -14 -82 -35
-27 -40 -27 -75 8 -36 36 -36 45 -3 77 19 20 31 24 52 19 15 -3 33 -13 40 -22z"/>
<path d="M1586 2304 c-9 -8 -16 -21 -16 -28 0 -34 24 -36 366 -34 l339 3 3 23
c8 52 5 52 -349 52 -284 0 -330 -2 -343 -16z"/>
<path d="M1582 2148 c-15 -15 -16 -45 -2 -53 6 -3 161 -7 346 -8 321 -2 337
-1 350 17 9 13 10 25 3 38 -9 17 -29 18 -347 18 -250 0 -341 -3 -350 -12z"/>
<path d="M1900 2010 l-325 -5 -3 -23 c-8 -52 -5 -52 352 -52 351 0 356 1 356
47 0 21 -29 46 -47 41 -4 -2 -154 -5 -333 -8z"/>
<path d="M1582 1848 c-15 -15 -16 -54 -2 -63 17 -10 682 -7 692 3 5 5 8 22 6
38 l-3 29 -340 3 c-257 2 -344 -1 -353 -10z"/>
<path d="M1436 1219 c-53 -42 -21 -139 46 -139 34 0 78 51 78 90 0 33 -40 70
-75 70 -12 0 -34 -9 -49 -21z m64 -64 c0 -27 -9 -32 -27 -14 -14 14 -6 39 13
39 8 0 14 -10 14 -25z"/>
<path d="M530 625 c-6 -8 -10 -24 -8 -37 3 -20 9 -23 50 -23 25 0 50 -4 54 -8
25 -25 104 8 104 44 0 24 -6 26 -107 33 -63 4 -84 2 -93 -9z"/>
<path d="M2325 633 c-82 -4 -105 -13 -105 -43 0 -37 24 -43 138 -34 103 9 107
10 110 33 4 27 -21 52 -47 49 -9 -1 -52 -4 -96 -5z"/>
<path d="M1158 543 c29 -2 74 -2 100 0 26 2 2 3 -53 3 -55 0 -76 -1 -47 -3z"/>
<path d="M1346 538 c6 -10 101 -11 108 0 2 4 -22 8 -54 8 -33 0 -57 -3 -54 -8z"/>
<path d="M1878 505 c-2 -2 -52 -5 -112 -8 -59 -4 -111 -9 -115 -12 -9 -10 350
6 374 16 13 5 -10 8 -62 7 -45 0 -84 -2 -85 -3z"/>
<path d="M1338 473 c29 -2 74 -2 100 0 26 2 2 3 -53 3 -55 0 -76 -1 -47 -3z"/>
<path d="M1713 313 c43 -2 110 -2 150 0 40 1 5 3 -78 3 -82 0 -115 -2 -72 -3z"/>
<path d="M1988 243 c18 -2 45 -2 60 0 15 2 0 4 -33 4 -33 0 -45 -2 -27 -4z"/>
</g>
</svg>
